<svg xmlns="http://www.w3.org/2000/svg" viewBox="0 0 54.59 54.59"><defs><style>.cls-1{fill:red;}</style></defs><g id="Calque_2" data-name="Calque 2"><g id="Design"><path class="cls-1" d="M27.29,54.59a27.3,27.3,0,1,1,27.3-27.3A27.33,27.33,0,0,1,27.29,54.59Zm0-51.66A24.36,24.36,0,1,0,51.65,27.29,24.39,24.39,0,0,0,27.29,2.93Z"/><path class="cls-1" d="M43.63,23.15a7,7,0,0,0-7-7H18.45a7,7,0,0,0-7,7v8.52a7,7,0,0,0,7,7H36.63a7,7,0,0,0,7-7ZM32.16,27.84l-7.25,4c-.31.17-.59-.06-.59-.42V23.24c0-.36.29-.59.6-.41L32.22,27A.47.47,0,0,1,32.16,27.84Z"/></g></g></svg>